<mxfile host="app.diagrams.net" modified="2023-10-04T10:18:31.913Z" agent="Mozilla/5.0 (Windows NT 10.0; Win64; x64) AppleWebKit/537.36 (KHTML, like Gecko) Chrome/117.0.0.0 Safari/537.36" etag="1KvOsGuLRdLJtqM9jCAH" version="22.0.2" type="github">
  <diagram name="Страница — 1" id="Pu00-0J5VDZ53HujTLwv">
    <mxGraphModel dx="1467" dy="783" grid="1" gridSize="10" guides="1" tooltips="1" connect="1" arrows="1" fold="1" page="1" pageScale="1" pageWidth="827" pageHeight="1169" math="0" shadow="0">
      <root>
        <mxCell id="0" />
        <mxCell id="1" parent="0" />
        <mxCell id="hDGafokkobRu29A4Ughm-1" value="ID клиента" style="ellipse;whiteSpace=wrap;html=1;" vertex="1" parent="1">
          <mxGeometry x="350" y="200" width="120" height="80" as="geometry" />
        </mxCell>
        <mxCell id="hDGafokkobRu29A4Ughm-11" style="edgeStyle=orthogonalEdgeStyle;rounded=0;orthogonalLoop=1;jettySize=auto;html=1;" edge="1" parent="1" source="hDGafokkobRu29A4Ughm-2" target="hDGafokkobRu29A4Ughm-1">
          <mxGeometry relative="1" as="geometry" />
        </mxCell>
        <mxCell id="hDGafokkobRu29A4Ughm-13" style="edgeStyle=orthogonalEdgeStyle;rounded=0;orthogonalLoop=1;jettySize=auto;html=1;" edge="1" parent="1" source="hDGafokkobRu29A4Ughm-2" target="hDGafokkobRu29A4Ughm-5">
          <mxGeometry relative="1" as="geometry" />
        </mxCell>
        <mxCell id="hDGafokkobRu29A4Ughm-15" style="edgeStyle=orthogonalEdgeStyle;rounded=0;orthogonalLoop=1;jettySize=auto;html=1;" edge="1" parent="1" source="hDGafokkobRu29A4Ughm-2" target="hDGafokkobRu29A4Ughm-7">
          <mxGeometry relative="1" as="geometry" />
        </mxCell>
        <mxCell id="hDGafokkobRu29A4Ughm-16" style="edgeStyle=orthogonalEdgeStyle;rounded=0;orthogonalLoop=1;jettySize=auto;html=1;" edge="1" parent="1" source="hDGafokkobRu29A4Ughm-2" target="hDGafokkobRu29A4Ughm-9">
          <mxGeometry relative="1" as="geometry" />
        </mxCell>
        <mxCell id="hDGafokkobRu29A4Ughm-17" style="rounded=0;orthogonalLoop=1;jettySize=auto;html=1;exitX=1;exitY=1;exitDx=0;exitDy=0;entryX=0;entryY=0;entryDx=0;entryDy=0;" edge="1" parent="1" source="hDGafokkobRu29A4Ughm-2" target="hDGafokkobRu29A4Ughm-8">
          <mxGeometry relative="1" as="geometry" />
        </mxCell>
        <mxCell id="hDGafokkobRu29A4Ughm-18" style="rounded=0;orthogonalLoop=1;jettySize=auto;html=1;exitX=1;exitY=0;exitDx=0;exitDy=0;entryX=0;entryY=1;entryDx=0;entryDy=0;" edge="1" parent="1" source="hDGafokkobRu29A4Ughm-2" target="hDGafokkobRu29A4Ughm-10">
          <mxGeometry relative="1" as="geometry" />
        </mxCell>
        <mxCell id="hDGafokkobRu29A4Ughm-19" style="rounded=0;orthogonalLoop=1;jettySize=auto;html=1;exitX=0;exitY=0;exitDx=0;exitDy=0;entryX=1;entryY=1;entryDx=0;entryDy=0;" edge="1" parent="1" source="hDGafokkobRu29A4Ughm-2" target="hDGafokkobRu29A4Ughm-4">
          <mxGeometry relative="1" as="geometry" />
        </mxCell>
        <mxCell id="hDGafokkobRu29A4Ughm-20" style="rounded=0;orthogonalLoop=1;jettySize=auto;html=1;exitX=0;exitY=1;exitDx=0;exitDy=0;entryX=1;entryY=0;entryDx=0;entryDy=0;" edge="1" parent="1" source="hDGafokkobRu29A4Ughm-2" target="hDGafokkobRu29A4Ughm-6">
          <mxGeometry relative="1" as="geometry" />
        </mxCell>
        <mxCell id="hDGafokkobRu29A4Ughm-2" value="Клиент" style="rounded=1;whiteSpace=wrap;html=1;" vertex="1" parent="1">
          <mxGeometry x="350" y="330" width="120" height="60" as="geometry" />
        </mxCell>
        <mxCell id="hDGafokkobRu29A4Ughm-4" value="Фамилия" style="ellipse;whiteSpace=wrap;html=1;" vertex="1" parent="1">
          <mxGeometry x="220" y="230" width="120" height="80" as="geometry" />
        </mxCell>
        <mxCell id="hDGafokkobRu29A4Ughm-5" value="Имя" style="ellipse;whiteSpace=wrap;html=1;" vertex="1" parent="1">
          <mxGeometry x="190" y="320" width="120" height="80" as="geometry" />
        </mxCell>
        <mxCell id="hDGafokkobRu29A4Ughm-6" value="Отчество" style="ellipse;whiteSpace=wrap;html=1;" vertex="1" parent="1">
          <mxGeometry x="220" y="410" width="120" height="80" as="geometry" />
        </mxCell>
        <mxCell id="hDGafokkobRu29A4Ughm-7" value="Название компании" style="ellipse;whiteSpace=wrap;html=1;" vertex="1" parent="1">
          <mxGeometry x="350" y="437.75" width="120" height="80" as="geometry" />
        </mxCell>
        <mxCell id="hDGafokkobRu29A4Ughm-8" value="Адрес компании" style="ellipse;whiteSpace=wrap;html=1;" vertex="1" parent="1">
          <mxGeometry x="480" y="410" width="120" height="80" as="geometry" />
        </mxCell>
        <mxCell id="hDGafokkobRu29A4Ughm-9" value="Почта" style="ellipse;whiteSpace=wrap;html=1;" vertex="1" parent="1">
          <mxGeometry x="510" y="320" width="120" height="80" as="geometry" />
        </mxCell>
        <mxCell id="hDGafokkobRu29A4Ughm-10" value="Телефон" style="ellipse;whiteSpace=wrap;html=1;" vertex="1" parent="1">
          <mxGeometry x="480" y="230" width="120" height="80" as="geometry" />
        </mxCell>
        <mxCell id="hDGafokkobRu29A4Ughm-21" value="ID счёта" style="ellipse;whiteSpace=wrap;html=1;" vertex="1" parent="1">
          <mxGeometry x="349" y="540" width="120" height="80" as="geometry" />
        </mxCell>
        <mxCell id="hDGafokkobRu29A4Ughm-22" style="edgeStyle=orthogonalEdgeStyle;rounded=0;orthogonalLoop=1;jettySize=auto;html=1;" edge="1" parent="1" source="hDGafokkobRu29A4Ughm-30" target="hDGafokkobRu29A4Ughm-21">
          <mxGeometry relative="1" as="geometry" />
        </mxCell>
        <mxCell id="hDGafokkobRu29A4Ughm-25" style="edgeStyle=orthogonalEdgeStyle;rounded=0;orthogonalLoop=1;jettySize=auto;html=1;" edge="1" parent="1" source="hDGafokkobRu29A4Ughm-30" target="hDGafokkobRu29A4Ughm-36">
          <mxGeometry relative="1" as="geometry" />
        </mxCell>
        <mxCell id="hDGafokkobRu29A4Ughm-26" style="rounded=0;orthogonalLoop=1;jettySize=auto;html=1;exitX=1;exitY=1;exitDx=0;exitDy=0;entryX=0;entryY=0;entryDx=0;entryDy=0;" edge="1" parent="1" source="hDGafokkobRu29A4Ughm-30" target="hDGafokkobRu29A4Ughm-35">
          <mxGeometry relative="1" as="geometry" />
        </mxCell>
        <mxCell id="hDGafokkobRu29A4Ughm-27" style="rounded=0;orthogonalLoop=1;jettySize=auto;html=1;exitX=1;exitY=0;exitDx=0;exitDy=0;entryX=0;entryY=1;entryDx=0;entryDy=0;" edge="1" parent="1" source="hDGafokkobRu29A4Ughm-30" target="hDGafokkobRu29A4Ughm-37">
          <mxGeometry relative="1" as="geometry" />
        </mxCell>
        <mxCell id="hDGafokkobRu29A4Ughm-38" style="edgeStyle=orthogonalEdgeStyle;rounded=0;orthogonalLoop=1;jettySize=auto;html=1;" edge="1" parent="1" source="hDGafokkobRu29A4Ughm-30" target="hDGafokkobRu29A4Ughm-33">
          <mxGeometry relative="1" as="geometry" />
        </mxCell>
        <mxCell id="hDGafokkobRu29A4Ughm-39" style="rounded=0;orthogonalLoop=1;jettySize=auto;html=1;exitX=0;exitY=0;exitDx=0;exitDy=0;entryX=1;entryY=1;entryDx=0;entryDy=0;" edge="1" parent="1" source="hDGafokkobRu29A4Ughm-30" target="hDGafokkobRu29A4Ughm-32">
          <mxGeometry relative="1" as="geometry" />
        </mxCell>
        <mxCell id="hDGafokkobRu29A4Ughm-40" style="rounded=0;orthogonalLoop=1;jettySize=auto;html=1;exitX=0;exitY=1;exitDx=0;exitDy=0;entryX=1;entryY=0;entryDx=0;entryDy=0;" edge="1" parent="1" source="hDGafokkobRu29A4Ughm-30" target="hDGafokkobRu29A4Ughm-34">
          <mxGeometry relative="1" as="geometry" />
        </mxCell>
        <mxCell id="hDGafokkobRu29A4Ughm-30" value="Счёт" style="rounded=1;whiteSpace=wrap;html=1;" vertex="1" parent="1">
          <mxGeometry x="349" y="670" width="120" height="60" as="geometry" />
        </mxCell>
        <mxCell id="hDGafokkobRu29A4Ughm-32" value="Статус счёта" style="ellipse;whiteSpace=wrap;html=1;" vertex="1" parent="1">
          <mxGeometry x="219" y="570" width="120" height="80" as="geometry" />
        </mxCell>
        <mxCell id="hDGafokkobRu29A4Ughm-33" value="Сумма счёта" style="ellipse;whiteSpace=wrap;html=1;" vertex="1" parent="1">
          <mxGeometry x="190" y="660" width="120" height="80" as="geometry" />
        </mxCell>
        <mxCell id="hDGafokkobRu29A4Ughm-34" value="Дата оплаты" style="ellipse;whiteSpace=wrap;html=1;" vertex="1" parent="1">
          <mxGeometry x="220" y="750" width="120" height="80" as="geometry" />
        </mxCell>
        <mxCell id="hDGafokkobRu29A4Ughm-35" value="Дата выставления счёта" style="ellipse;whiteSpace=wrap;html=1;" vertex="1" parent="1">
          <mxGeometry x="479" y="750" width="120" height="80" as="geometry" />
        </mxCell>
        <mxCell id="hDGafokkobRu29A4Ughm-36" value="ID заказа" style="ellipse;whiteSpace=wrap;html=1;" vertex="1" parent="1">
          <mxGeometry x="509" y="660" width="120" height="80" as="geometry" />
        </mxCell>
        <mxCell id="hDGafokkobRu29A4Ughm-37" value="ID клиента" style="ellipse;whiteSpace=wrap;html=1;" vertex="1" parent="1">
          <mxGeometry x="479" y="570" width="120" height="80" as="geometry" />
        </mxCell>
        <mxCell id="hDGafokkobRu29A4Ughm-41" value="ID сотрудника" style="ellipse;whiteSpace=wrap;html=1;" vertex="1" parent="1">
          <mxGeometry x="349" y="850" width="120" height="80" as="geometry" />
        </mxCell>
        <mxCell id="hDGafokkobRu29A4Ughm-42" style="edgeStyle=orthogonalEdgeStyle;rounded=0;orthogonalLoop=1;jettySize=auto;html=1;" edge="1" parent="1" source="hDGafokkobRu29A4Ughm-49" target="hDGafokkobRu29A4Ughm-41">
          <mxGeometry relative="1" as="geometry" />
        </mxCell>
        <mxCell id="hDGafokkobRu29A4Ughm-43" style="edgeStyle=orthogonalEdgeStyle;rounded=0;orthogonalLoop=1;jettySize=auto;html=1;" edge="1" parent="1" source="hDGafokkobRu29A4Ughm-49" target="hDGafokkobRu29A4Ughm-54">
          <mxGeometry relative="1" as="geometry" />
        </mxCell>
        <mxCell id="hDGafokkobRu29A4Ughm-44" style="rounded=0;orthogonalLoop=1;jettySize=auto;html=1;exitX=1;exitY=1;exitDx=0;exitDy=0;entryX=0;entryY=0;entryDx=0;entryDy=0;" edge="1" parent="1" source="hDGafokkobRu29A4Ughm-49" target="hDGafokkobRu29A4Ughm-53">
          <mxGeometry relative="1" as="geometry" />
        </mxCell>
        <mxCell id="hDGafokkobRu29A4Ughm-45" style="rounded=0;orthogonalLoop=1;jettySize=auto;html=1;exitX=1;exitY=0;exitDx=0;exitDy=0;entryX=0;entryY=1;entryDx=0;entryDy=0;" edge="1" parent="1" source="hDGafokkobRu29A4Ughm-49" target="hDGafokkobRu29A4Ughm-55">
          <mxGeometry relative="1" as="geometry" />
        </mxCell>
        <mxCell id="hDGafokkobRu29A4Ughm-46" style="edgeStyle=orthogonalEdgeStyle;rounded=0;orthogonalLoop=1;jettySize=auto;html=1;" edge="1" parent="1" source="hDGafokkobRu29A4Ughm-49" target="hDGafokkobRu29A4Ughm-51">
          <mxGeometry relative="1" as="geometry" />
        </mxCell>
        <mxCell id="hDGafokkobRu29A4Ughm-47" style="rounded=0;orthogonalLoop=1;jettySize=auto;html=1;exitX=0;exitY=0;exitDx=0;exitDy=0;entryX=1;entryY=1;entryDx=0;entryDy=0;" edge="1" parent="1" source="hDGafokkobRu29A4Ughm-49" target="hDGafokkobRu29A4Ughm-50">
          <mxGeometry relative="1" as="geometry" />
        </mxCell>
        <mxCell id="hDGafokkobRu29A4Ughm-48" style="rounded=0;orthogonalLoop=1;jettySize=auto;html=1;exitX=0;exitY=1;exitDx=0;exitDy=0;entryX=1;entryY=0;entryDx=0;entryDy=0;" edge="1" parent="1" source="hDGafokkobRu29A4Ughm-49" target="hDGafokkobRu29A4Ughm-52">
          <mxGeometry relative="1" as="geometry" />
        </mxCell>
        <mxCell id="hDGafokkobRu29A4Ughm-49" value="Сотрудник" style="rounded=1;whiteSpace=wrap;html=1;" vertex="1" parent="1">
          <mxGeometry x="349" y="980" width="120" height="60" as="geometry" />
        </mxCell>
        <mxCell id="hDGafokkobRu29A4Ughm-50" value="Вид деятельности" style="ellipse;whiteSpace=wrap;html=1;" vertex="1" parent="1">
          <mxGeometry x="219" y="880" width="120" height="80" as="geometry" />
        </mxCell>
        <mxCell id="hDGafokkobRu29A4Ughm-51" value="Телефон" style="ellipse;whiteSpace=wrap;html=1;" vertex="1" parent="1">
          <mxGeometry x="190" y="970" width="120" height="80" as="geometry" />
        </mxCell>
        <mxCell id="hDGafokkobRu29A4Ughm-52" value="Почта" style="ellipse;whiteSpace=wrap;html=1;" vertex="1" parent="1">
          <mxGeometry x="220" y="1060" width="120" height="80" as="geometry" />
        </mxCell>
        <mxCell id="hDGafokkobRu29A4Ughm-53" value="Отчество" style="ellipse;whiteSpace=wrap;html=1;" vertex="1" parent="1">
          <mxGeometry x="479" y="1060" width="120" height="80" as="geometry" />
        </mxCell>
        <mxCell id="hDGafokkobRu29A4Ughm-54" value="Имя" style="ellipse;whiteSpace=wrap;html=1;" vertex="1" parent="1">
          <mxGeometry x="509" y="970" width="120" height="80" as="geometry" />
        </mxCell>
        <mxCell id="hDGafokkobRu29A4Ughm-55" value="Фамилия" style="ellipse;whiteSpace=wrap;html=1;" vertex="1" parent="1">
          <mxGeometry x="479" y="880" width="120" height="80" as="geometry" />
        </mxCell>
        <mxCell id="hDGafokkobRu29A4Ughm-56" value="ID услуги" style="ellipse;whiteSpace=wrap;html=1;" vertex="1" parent="1">
          <mxGeometry x="799" y="480" width="120" height="80" as="geometry" />
        </mxCell>
        <mxCell id="hDGafokkobRu29A4Ughm-57" style="edgeStyle=orthogonalEdgeStyle;rounded=0;orthogonalLoop=1;jettySize=auto;html=1;" edge="1" parent="1" source="hDGafokkobRu29A4Ughm-64" target="hDGafokkobRu29A4Ughm-56">
          <mxGeometry relative="1" as="geometry" />
        </mxCell>
        <mxCell id="hDGafokkobRu29A4Ughm-61" style="edgeStyle=orthogonalEdgeStyle;rounded=0;orthogonalLoop=1;jettySize=auto;html=1;" edge="1" parent="1" source="hDGafokkobRu29A4Ughm-64" target="hDGafokkobRu29A4Ughm-66">
          <mxGeometry relative="1" as="geometry" />
        </mxCell>
        <mxCell id="hDGafokkobRu29A4Ughm-71" style="edgeStyle=orthogonalEdgeStyle;rounded=0;orthogonalLoop=1;jettySize=auto;html=1;" edge="1" parent="1" source="hDGafokkobRu29A4Ughm-64" target="hDGafokkobRu29A4Ughm-68">
          <mxGeometry relative="1" as="geometry" />
        </mxCell>
        <mxCell id="hDGafokkobRu29A4Ughm-64" value="Услуга" style="rounded=1;whiteSpace=wrap;html=1;" vertex="1" parent="1">
          <mxGeometry x="799" y="590" width="120" height="60" as="geometry" />
        </mxCell>
        <mxCell id="hDGafokkobRu29A4Ughm-65" value="ID сотрудника" style="ellipse;whiteSpace=wrap;html=1;" vertex="1" parent="1">
          <mxGeometry x="899" y="670" width="120" height="80" as="geometry" />
        </mxCell>
        <mxCell id="hDGafokkobRu29A4Ughm-66" value="Название услуги" style="ellipse;whiteSpace=wrap;html=1;" vertex="1" parent="1">
          <mxGeometry x="640" y="580" width="120" height="80" as="geometry" />
        </mxCell>
        <mxCell id="hDGafokkobRu29A4Ughm-67" value="Цена услуги" style="ellipse;whiteSpace=wrap;html=1;" vertex="1" parent="1">
          <mxGeometry x="699" y="670" width="120" height="80" as="geometry" />
        </mxCell>
        <mxCell id="hDGafokkobRu29A4Ughm-68" value="Описание услуги" style="ellipse;whiteSpace=wrap;html=1;" vertex="1" parent="1">
          <mxGeometry x="960" y="580" width="120" height="80" as="geometry" />
        </mxCell>
        <mxCell id="hDGafokkobRu29A4Ughm-72" style="rounded=0;orthogonalLoop=1;jettySize=auto;html=1;exitX=0;exitY=1;exitDx=0;exitDy=0;entryX=0.73;entryY=0.063;entryDx=0;entryDy=0;entryPerimeter=0;" edge="1" parent="1" source="hDGafokkobRu29A4Ughm-64" target="hDGafokkobRu29A4Ughm-67">
          <mxGeometry relative="1" as="geometry">
            <mxPoint x="790" y="670" as="targetPoint" />
          </mxGeometry>
        </mxCell>
        <mxCell id="hDGafokkobRu29A4Ughm-73" style="rounded=0;orthogonalLoop=1;jettySize=auto;html=1;exitX=1;exitY=1;exitDx=0;exitDy=0;entryX=0.302;entryY=0.04;entryDx=0;entryDy=0;entryPerimeter=0;" edge="1" parent="1" source="hDGafokkobRu29A4Ughm-64" target="hDGafokkobRu29A4Ughm-65">
          <mxGeometry relative="1" as="geometry" />
        </mxCell>
        <mxCell id="hDGafokkobRu29A4Ughm-74" value="ID заказа" style="ellipse;whiteSpace=wrap;html=1;" vertex="1" parent="1">
          <mxGeometry x="788" y="740" width="120" height="80" as="geometry" />
        </mxCell>
        <mxCell id="hDGafokkobRu29A4Ughm-75" style="edgeStyle=orthogonalEdgeStyle;rounded=0;orthogonalLoop=1;jettySize=auto;html=1;" edge="1" parent="1" source="hDGafokkobRu29A4Ughm-78" target="hDGafokkobRu29A4Ughm-74">
          <mxGeometry relative="1" as="geometry" />
        </mxCell>
        <mxCell id="hDGafokkobRu29A4Ughm-76" style="rounded=0;orthogonalLoop=1;jettySize=auto;html=1;" edge="1" parent="1" source="hDGafokkobRu29A4Ughm-78" target="hDGafokkobRu29A4Ughm-80">
          <mxGeometry relative="1" as="geometry" />
        </mxCell>
        <mxCell id="hDGafokkobRu29A4Ughm-77" style="rounded=0;orthogonalLoop=1;jettySize=auto;html=1;" edge="1" parent="1" source="hDGafokkobRu29A4Ughm-78" target="hDGafokkobRu29A4Ughm-82">
          <mxGeometry relative="1" as="geometry" />
        </mxCell>
        <mxCell id="hDGafokkobRu29A4Ughm-86" style="edgeStyle=orthogonalEdgeStyle;rounded=0;orthogonalLoop=1;jettySize=auto;html=1;" edge="1" parent="1" source="hDGafokkobRu29A4Ughm-78" target="hDGafokkobRu29A4Ughm-85">
          <mxGeometry relative="1" as="geometry" />
        </mxCell>
        <mxCell id="hDGafokkobRu29A4Ughm-87" style="rounded=0;orthogonalLoop=1;jettySize=auto;html=1;exitX=0;exitY=1;exitDx=0;exitDy=0;entryX=1;entryY=0;entryDx=0;entryDy=0;" edge="1" parent="1" source="hDGafokkobRu29A4Ughm-78" target="hDGafokkobRu29A4Ughm-81">
          <mxGeometry relative="1" as="geometry" />
        </mxCell>
        <mxCell id="hDGafokkobRu29A4Ughm-88" style="rounded=0;orthogonalLoop=1;jettySize=auto;html=1;exitX=1;exitY=1;exitDx=0;exitDy=0;entryX=0;entryY=0;entryDx=0;entryDy=0;" edge="1" parent="1" source="hDGafokkobRu29A4Ughm-78" target="hDGafokkobRu29A4Ughm-79">
          <mxGeometry relative="1" as="geometry" />
        </mxCell>
        <mxCell id="hDGafokkobRu29A4Ughm-78" value="Заказ" style="rounded=1;whiteSpace=wrap;html=1;" vertex="1" parent="1">
          <mxGeometry x="788" y="850" width="120" height="60" as="geometry" />
        </mxCell>
        <mxCell id="hDGafokkobRu29A4Ughm-79" value="Описание заказа" style="ellipse;whiteSpace=wrap;html=1;" vertex="1" parent="1">
          <mxGeometry x="939" y="920" width="120" height="80" as="geometry" />
        </mxCell>
        <mxCell id="hDGafokkobRu29A4Ughm-80" value="ID клиента" style="ellipse;whiteSpace=wrap;html=1;" vertex="1" parent="1">
          <mxGeometry x="640" y="760" width="120" height="80" as="geometry" />
        </mxCell>
        <mxCell id="hDGafokkobRu29A4Ughm-81" value="Дата заказа" style="ellipse;whiteSpace=wrap;html=1;" vertex="1" parent="1">
          <mxGeometry x="640" y="920" width="120" height="80" as="geometry" />
        </mxCell>
        <mxCell id="hDGafokkobRu29A4Ughm-82" value="ID услуги" style="ellipse;whiteSpace=wrap;html=1;" vertex="1" parent="1">
          <mxGeometry x="939" y="760" width="120" height="80" as="geometry" />
        </mxCell>
        <mxCell id="hDGafokkobRu29A4Ughm-85" value="Цена заказа" style="ellipse;whiteSpace=wrap;html=1;" vertex="1" parent="1">
          <mxGeometry x="788" y="940" width="120" height="80" as="geometry" />
        </mxCell>
        <mxCell id="hDGafokkobRu29A4Ughm-89" value="ID отчёта" style="ellipse;whiteSpace=wrap;html=1;" vertex="1" parent="1">
          <mxGeometry x="799" y="200" width="120" height="80" as="geometry" />
        </mxCell>
        <mxCell id="hDGafokkobRu29A4Ughm-90" style="edgeStyle=orthogonalEdgeStyle;rounded=0;orthogonalLoop=1;jettySize=auto;html=1;" edge="1" parent="1" source="hDGafokkobRu29A4Ughm-93" target="hDGafokkobRu29A4Ughm-89">
          <mxGeometry relative="1" as="geometry" />
        </mxCell>
        <mxCell id="hDGafokkobRu29A4Ughm-101" style="edgeStyle=orthogonalEdgeStyle;rounded=0;orthogonalLoop=1;jettySize=auto;html=1;" edge="1" parent="1" source="hDGafokkobRu29A4Ughm-93" target="hDGafokkobRu29A4Ughm-94">
          <mxGeometry relative="1" as="geometry" />
        </mxCell>
        <mxCell id="hDGafokkobRu29A4Ughm-103" style="rounded=0;orthogonalLoop=1;jettySize=auto;html=1;" edge="1" parent="1" source="hDGafokkobRu29A4Ughm-93" target="hDGafokkobRu29A4Ughm-97">
          <mxGeometry relative="1" as="geometry" />
        </mxCell>
        <mxCell id="hDGafokkobRu29A4Ughm-104" style="rounded=0;orthogonalLoop=1;jettySize=auto;html=1;" edge="1" parent="1" source="hDGafokkobRu29A4Ughm-93" target="hDGafokkobRu29A4Ughm-100">
          <mxGeometry relative="1" as="geometry" />
        </mxCell>
        <mxCell id="hDGafokkobRu29A4Ughm-106" style="rounded=0;orthogonalLoop=1;jettySize=auto;html=1;" edge="1" parent="1" source="hDGafokkobRu29A4Ughm-93" target="hDGafokkobRu29A4Ughm-95">
          <mxGeometry relative="1" as="geometry" />
        </mxCell>
        <mxCell id="hDGafokkobRu29A4Ughm-108" style="rounded=0;orthogonalLoop=1;jettySize=auto;html=1;" edge="1" parent="1" source="hDGafokkobRu29A4Ughm-93" target="hDGafokkobRu29A4Ughm-96">
          <mxGeometry relative="1" as="geometry" />
        </mxCell>
        <mxCell id="hDGafokkobRu29A4Ughm-93" value="Отчёт" style="rounded=1;whiteSpace=wrap;html=1;" vertex="1" parent="1">
          <mxGeometry x="799" y="310" width="120" height="60" as="geometry" />
        </mxCell>
        <mxCell id="hDGafokkobRu29A4Ughm-94" value="Дата оставления отчёта" style="ellipse;whiteSpace=wrap;html=1;" vertex="1" parent="1">
          <mxGeometry x="799" y="390" width="120" height="80" as="geometry" />
        </mxCell>
        <mxCell id="hDGafokkobRu29A4Ughm-95" value="Готовность услуги" style="ellipse;whiteSpace=wrap;html=1;" vertex="1" parent="1">
          <mxGeometry x="930" y="350" width="120" height="80" as="geometry" />
        </mxCell>
        <mxCell id="hDGafokkobRu29A4Ughm-96" value="Готовность отчёта" style="ellipse;whiteSpace=wrap;html=1;" vertex="1" parent="1">
          <mxGeometry x="668" y="350" width="120" height="80" as="geometry" />
        </mxCell>
        <mxCell id="hDGafokkobRu29A4Ughm-97" value="ID услуги" style="ellipse;whiteSpace=wrap;html=1;" vertex="1" parent="1">
          <mxGeometry x="930" y="240" width="120" height="80" as="geometry" />
        </mxCell>
        <mxCell id="hDGafokkobRu29A4Ughm-100" value="Файл с описанием" style="ellipse;whiteSpace=wrap;html=1;" vertex="1" parent="1">
          <mxGeometry x="668" y="240" width="120" height="80" as="geometry" />
        </mxCell>
        <mxCell id="hDGafokkobRu29A4Ughm-109" value="" style="ellipse;whiteSpace=wrap;html=1;" vertex="1" parent="1">
          <mxGeometry x="548" y="50" width="120" height="80" as="geometry" />
        </mxCell>
        <mxCell id="hDGafokkobRu29A4Ughm-110" value="" style="ellipse;whiteSpace=wrap;html=1;" vertex="1" parent="1">
          <mxGeometry x="1200" y="380" width="120" height="80" as="geometry" />
        </mxCell>
        <mxCell id="hDGafokkobRu29A4Ughm-111" value="" style="ellipse;whiteSpace=wrap;html=1;" vertex="1" parent="1">
          <mxGeometry x="60" y="460" width="120" height="80" as="geometry" />
        </mxCell>
        <mxCell id="hDGafokkobRu29A4Ughm-112" value="" style="ellipse;whiteSpace=wrap;html=1;" vertex="1" parent="1">
          <mxGeometry x="660" y="1080" width="120" height="80" as="geometry" />
        </mxCell>
      </root>
    </mxGraphModel>
  </diagram>
</mxfile>
